<svg xmlns="http://www.w3.org/2000/svg" version="1.1" xmlns:xlink="http://www.w3.org/1999/xlink" xmlns:svgjs="http://svgjs.dev/svgjs" width="1440" height="560" preserveAspectRatio="none" viewBox="0 0 1440 560"><g mask="url(&quot;#SvgjsMask1053&quot;)" fill="none"><path d="M -604.9137498613604,108 C -532.91,172 -388.91,421.6 -244.91374986136037,428 C -100.91,434.4 -28.91,158.8 115.08625013863963,140 C 259.09,121.2 331.09,324 475.0862501386396,334 C 619.09,344 691.09,195.2 835.0862501386396,190 C 979.09,184.8 1074.1,308 1195.0862501386396,308 C 1316.07,308 1391.02,213.6 1440,190" stroke="rgba(13, 108, 208, 0.58)" stroke-width="2"></path><path d="M -297.6583593952617,226 C -225.66,248.6 -81.66,343.4 62.34164060473831,339 C 206.34,334.6 278.34,212.8 422.3416406047383,204 C 566.34,195.2 638.34,316.2 782.3416406047384,295 C 926.34,273.8 998.34,75.6 1142.3416406047384,98 C 1286.34,120.4 1442.81,390.4 1502.3416406047384,407 C 1561.87,423.6 1452.47,226.2 1440,181" stroke="rgba(13, 108, 208, 0.58)" stroke-width="2"></path><path d="M -61.73735370503874,346 C 10.26,322.2 154.26,216 298.26264629496126,227 C 442.26,238 514.26,409.4 658.2626462949613,401 C 802.26,392.6 874.26,194 1018.2626462949613,185 C 1162.26,176 1234.26,367 1378.2626462949613,356 C 1522.26,345 1725.92,108 1738.2626462949613,130 C 1750.61,152 1499.65,398.8 1440,466" stroke="rgba(13, 108, 208, 0.58)" stroke-width="2"></path></g><defs><mask id="SvgjsMask1053"><rect width="1440" height="560" fill="#ffffff"></rect></mask></defs></svg>